<svg width="91" height="32" viewBox="0 0 91 32" fill="none" xmlns="http://www.w3.org/2000/svg">
<path d="M7.14799 1.04574C4.96412 -0.140558 2.23205 0.668134 1.04574 2.85201C-0.140558 5.03588 0.668134 7.76795 2.85201 8.95426L7.14799 1.04574ZM45.5 27L43.352 30.9543C44.6916 31.6819 46.3084 31.6819 47.648 30.9543L45.5 27ZM88.148 8.95426C90.3319 7.76795 91.1406 5.03588 89.9543 2.85201C88.768 0.668134 86.0359 -0.140558 83.852 1.04574L88.148 8.95426ZM2.85201 8.95426L43.352 30.9543L47.648 23.0457L7.14799 1.04574L2.85201 8.95426ZM47.648 30.9543L88.148 8.95426L83.852 1.04574L43.352 23.0457L47.648 30.9543Z" fill="white"/>
</svg>
