<svg width="48" height="48" viewBox="0 0 48 48" fill="none" xmlns="http://www.w3.org/2000/svg">
<path fill-rule="evenodd" clip-rule="evenodd" d="M20.9117 36.9314V42.1014C20.9117 43.0606 20.1341 43.8382 19.1749 43.8382C18.2157 43.8382 17.4381 43.0606 17.4381 42.1014L17.44 39.0821C13.5885 39.7107 11.1438 38.4543 8.85766 35.6236C8.7157 35.4479 8.19761 34.7902 8.0774 34.6416C7.39831 33.8025 6.99614 33.4656 6.59601 33.3656C5.66544 33.1329 5.09965 32.1899 5.3323 31.2594C5.56494 30.3288 6.50791 29.763 7.43848 29.9957C8.76713 30.3278 9.66075 31.0764 10.7776 32.4565C10.9166 32.6283 11.4361 33.2877 11.56 33.4411C13.2085 35.4823 14.5778 36.1846 17.4423 35.5526L17.4424 35.5019C17.3615 34.3525 17.5439 33.2138 17.9603 32.1662C11.4631 30.6753 7.88565 26.7594 7.88567 18.7506C7.87217 16.2112 8.72282 13.7539 10.2806 11.7744C9.68725 9.51452 9.85931 7.11017 10.7876 4.9443C10.991 4.46971 11.3951 4.11023 11.8901 3.9634C11.9896 3.9339 12.1109 3.9072 12.2538 3.88645C13.8862 3.64951 16.2791 4.29393 19.4858 6.32818C23.2783 5.42798 27.2291 5.42798 31.0216 6.32818C34.2284 4.29393 36.6213 3.64951 38.2536 3.88645C38.3965 3.9072 38.5179 3.9339 38.6173 3.9634C39.1124 4.11023 39.5164 4.46971 39.7198 4.9443C40.6481 7.11017 40.8202 9.51454 40.2268 11.7744C41.7716 13.7374 42.6213 16.1709 42.6218 18.6893C42.6218 26.7518 39.0263 30.7051 32.5646 32.1377C32.9797 33.1795 33.1576 34.2946 33.0693 35.38V42.1014C33.0693 43.0606 32.2917 43.8382 31.3325 43.8382C30.3733 43.8382 29.5957 43.0606 29.5957 42.1014L29.6011 35.2438C29.6938 34.0656 29.2756 32.9044 28.4529 32.0558C27.4481 31.0194 28.0729 29.2807 29.5075 29.1208C36.0533 28.3912 39.1482 25.7888 39.1482 18.6896C39.1478 16.7105 38.3865 14.8073 37.0219 13.3738C36.5636 12.8924 36.4202 12.1917 36.6526 11.569C37.1518 10.2312 37.2312 8.7828 36.8952 7.41319C36.7732 7.44075 36.6395 7.47499 36.4937 7.51697C35.3745 7.83914 33.9798 8.51538 32.2996 9.64165C31.882 9.9216 31.3635 10.0068 30.8782 9.87531C27.195 8.87708 23.3124 8.87708 19.6292 9.87531C19.1439 10.0068 18.6255 9.9216 18.2078 9.64165C16.5277 8.51538 15.1329 7.83914 14.0138 7.51697C13.8679 7.47499 13.7342 7.44075 13.6123 7.41319C13.2762 8.7828 13.3556 10.2312 13.8549 11.569C14.0872 12.1917 13.9439 12.8925 13.4855 13.3739C12.1107 14.8179 11.3486 16.7383 11.3593 18.7414C11.3593 25.7741 14.4309 28.3569 21.0216 29.1755C22.4434 29.3521 23.0519 31.0773 22.0556 32.1068C21.2428 32.9467 20.8254 34.0924 20.9117 35.38V36.852C20.9123 36.8785 20.9123 36.905 20.9117 36.9314Z" fill="white"/>
</svg>
