<svg width="47" height="48" viewBox="0 0 47 48" fill="none" xmlns="http://www.w3.org/2000/svg">
<path fill-rule="evenodd" clip-rule="evenodd" d="M23.5001 13.9999C18.0923 13.9999 13.7084 18.4771 13.7084 23.9999C13.7084 29.5228 18.0923 33.9999 23.5001 33.9999C28.9079 33.9999 33.2918 29.5228 33.2918 23.9999C33.2918 21.3478 32.2601 18.8042 30.4238 16.9289C28.5875 15.0535 26.097 13.9999 23.5001 13.9999ZM23.5001 30.0001C20.2554 30.0001 17.6251 27.3138 17.6251 24.0001C17.6251 20.6864 20.2554 18.0001 23.5001 18.0001C26.7448 18.0001 29.3751 20.6864 29.3751 24.0001C29.3751 25.5914 28.7561 27.1175 27.6543 28.2427C26.5526 29.3679 25.0582 30.0001 23.5001 30.0001ZM33.2918 12.0001C32.2102 12.0001 31.3334 12.8955 31.3334 14.0001C31.3334 15.1046 32.2102 16.0001 33.2918 16.0001C34.3733 16.0001 35.2501 15.1046 35.2501 14.0001C35.2501 12.8955 34.3733 12.0001 33.2918 12.0001ZM42.9659 16.48C42.9335 14.7708 42.6156 13.0799 42.0259 11.48C40.9201 8.5357 38.6422 6.20936 35.7592 5.08C34.1927 4.4778 32.537 4.15314 30.8634 4.12C28.9638 4 28.3372 4 23.5001 4C18.663 4 18.0363 4 16.1367 4.12C14.4632 4.15314 12.8075 4.4778 11.2409 5.08C8.35795 6.20936 6.08008 8.5357 4.97425 11.48C4.38459 13.0799 4.06669 14.7708 4.03425 16.48C3.91675 18.44 3.91675 19.08 3.91675 24C3.91675 28.92 3.91675 29.56 4.03425 31.52C4.06669 33.2292 4.38459 34.9201 4.97425 36.52C6.08008 39.4643 8.35795 41.7906 11.2409 42.92C12.8075 43.5222 14.4632 43.8469 16.1367 43.88C18.0951 43.88 18.663 44 23.5001 44C28.3372 44 28.9638 44 30.8634 43.88C32.537 43.8469 34.1927 43.5222 35.7592 42.92C38.6422 41.7906 40.9201 39.4643 42.0259 36.52C42.6156 34.9201 42.9335 33.2292 42.9659 31.52C42.9659 29.52 43.0834 28.92 43.0834 24C43.0834 19.08 43.0834 18.44 42.9659 16.48ZM39.0492 31.3399C39.0149 32.6092 38.7836 33.8648 38.3638 35.0599C38.0168 36.0046 37.4682 36.8586 36.758 37.5599C36.0754 38.2856 35.2375 38.8401 34.3101 39.1799C33.137 39.6262 31.8994 39.8695 30.648 39.8999C28.8072 39.8999 28.2392 39.9999 23.4805 39.9999C18.7217 39.9999 18.1734 39.9999 16.3326 39.9999C15.0832 39.967 13.847 39.7307 12.6705 39.2999C11.7455 38.9455 10.9093 38.3853 10.2226 37.6599C9.512 36.9628 8.96908 36.1071 8.63632 35.1599C8.20119 33.9684 7.96295 32.7113 7.93132 31.4399C7.93132 29.4399 7.93132 28.9399 7.93132 24.0999C7.93132 19.2599 7.93132 18.6799 7.93132 16.7599C7.96508 15.4824 8.20322 14.219 8.63632 13.0199C8.97425 12.0812 9.51666 11.2332 10.2226 10.5399C10.9052 9.81425 11.743 9.25978 12.6705 8.91994C13.8435 8.47373 15.0812 8.23039 16.3326 8.19994C18.1734 7.99994 18.7413 7.99994 23.5001 7.99994C28.2588 7.99994 28.8267 7.99994 30.6676 7.99994C31.9251 8.03259 33.1689 8.27583 34.3492 8.71994C35.2684 9.06505 36.0988 9.619 36.7776 10.3399C37.4881 11.0371 38.0311 11.8928 38.3638 12.8399C38.8432 14.0571 39.1148 15.3491 39.1667 16.6599C39.1667 18.6599 39.2647 19.1599 39.2647 23.9999C39.2647 28.8399 39.1667 29.4199 39.1667 31.3399H39.0492Z" fill="white"/>
</svg>
