<svg width="48" height="48" viewBox="0 0 48 48" fill="none" xmlns="http://www.w3.org/2000/svg">
<path fill-rule="evenodd" clip-rule="evenodd" d="M9.29442 15.7085C12.3068 15.7085 14.7487 13.2665 14.7487 10.2541C14.7487 7.24179 12.3068 4.7998 9.29442 4.7998C6.28207 4.7998 3.84009 7.24179 3.84009 10.2541C3.84009 13.2665 6.28207 15.7085 9.29442 15.7085ZM9.29444 12.0723C8.29033 12.0723 7.47633 11.2583 7.47633 10.2542C7.47633 9.25004 8.29033 8.43605 9.29444 8.43605C10.2986 8.43605 11.1125 9.25004 11.1125 10.2542C11.1125 11.2583 10.2986 12.0723 9.29444 12.0723ZM43.8385 28.4353C43.8385 21.4065 38.1405 15.7085 31.1117 15.7085C24.0829 15.7085 18.385 21.4065 18.385 28.4353V41.1621C18.385 42.1662 19.199 42.9802 20.2031 42.9802H27.4755C28.4796 42.9802 29.2936 42.1662 29.2936 41.1621V28.4353C29.2936 27.4312 30.1076 26.6172 31.1117 26.6172C32.1158 26.6172 32.9298 27.4312 32.9298 28.4353V41.1621C32.9298 42.1662 33.7438 42.9802 34.7479 42.9802H42.0204C43.0245 42.9802 43.8385 42.1662 43.8385 41.1621V28.4353ZM40.2023 28.4353V39.344H36.5661V28.4353C36.5661 25.423 34.1241 22.981 31.1117 22.981C28.0994 22.981 25.6574 25.423 25.6574 28.4353V39.344H22.0212V28.4353C22.0212 23.4147 26.0912 19.3448 31.1117 19.3448C36.1323 19.3448 40.2023 23.4147 40.2023 28.4353ZM5.6582 17.5265C4.65408 17.5265 3.84009 18.3405 3.84009 19.3446V41.1619C3.84009 42.166 4.65408 42.98 5.6582 42.98H12.9306C13.9347 42.98 14.7487 42.166 14.7487 41.1619V19.3446C14.7487 18.3405 13.9347 17.5265 12.9306 17.5265H5.6582ZM7.47633 39.3438V21.1627H11.1125V39.3438H7.47633Z" fill="white"/>
</svg>
