<?xml version="1.0" standalone="no"?>
<!DOCTYPE svg PUBLIC "-//W3C//DTD SVG 20010904//EN"
 "http://www.w3.org/TR/2001/REC-SVG-20010904/DTD/svg10.dtd">
<svg version="1.0" xmlns="http://www.w3.org/2000/svg"
 width="1244.000000pt" height="1244.000000pt" viewBox="0 0 1244.000000 1244.000000"
 preserveAspectRatio="xMidYMid meet">
<metadata>
Created by potrace 1.14, written by Peter Selinger 2001-2017
</metadata>
<g transform="translate(0.000000,1244.000000) scale(0.100000,-0.100000)"
fill="#000000" stroke="none">
<path d="M1545 10447 c-17 -8 -38 -29 -48 -48 -24 -48 -94 -359 -102 -454 -21
-267 -100 -539 -259 -890 -60 -134 -64 -194 -16 -249 36 -40 75 -57 197 -86
51 -12 99 -30 111 -41 29 -27 40 -75 47 -213 3 -66 8 -123 12 -129 3 -5 0 -80
-7 -166 -12 -154 -12 -158 13 -266 28 -118 52 -288 62 -425 3 -47 7 -114 10
-150 3 -36 7 -108 10 -160 11 -176 25 -354 41 -485 52 -454 61 -640 40 -855
-18 -189 -15 -271 21 -516 25 -173 27 -216 28 -514 1 -192 6 -352 13 -390 13
-72 37 -352 47 -530 7 -136 21 -314 36 -460 24 -241 121 -1051 151 -1260 36
-255 42 -457 19 -600 -12 -77 -12 -89 3 -118 33 -64 150 -65 315 -2 81 31 216
110 238 138 30 39 34 90 23 250 -10 148 -19 210 -70 507 -11 66 -25 201 -30
300 -32 546 -62 854 -145 1475 -108 816 -161 1387 -196 2139 -12 268 -9 285
50 300 70 19 171 31 616 76 248 25 559 61 690 80 323 46 405 53 795 65 814 25
1242 44 1399 61 188 21 246 1 371 -123 89 -88 374 -295 483 -350 68 -34 168
-58 244 -58 29 0 98 8 155 19 57 10 155 24 218 30 335 33 639 135 1195 401
395 189 604 249 969 275 347 26 767 64 866 80 150 25 281 61 428 119 442 175
712 355 944 626 112 131 153 203 143 249 -13 59 -107 111 -177 97 -18 -3 -78
-34 -133 -67 -55 -33 -173 -96 -262 -139 -90 -44 -189 -94 -220 -113 -204
-118 -438 -165 -762 -152 -102 4 -282 9 -399 11 -180 3 -217 6 -242 21 -39 23
-63 75 -68 148 -4 79 18 119 87 162 51 31 363 137 611 208 232 67 438 186 920
536 118 85 258 184 310 219 93 62 245 205 282 265 24 39 23 86 -2 118 -16 20
-42 30 -128 51 -60 14 -122 26 -138 26 -53 0 -108 -21 -159 -61 -27 -21 -79
-61 -113 -89 -72 -56 -241 -145 -350 -184 -91 -32 -233 -68 -382 -96 -63 -12
-170 -40 -238 -61 -162 -51 -276 -69 -447 -69 -151 0 -425 22 -570 46 -73 12
-111 25 -205 73 -198 101 -330 139 -630 182 -287 41 -578 29 -925 -38 -374
-72 -551 -120 -815 -222 -140 -54 -279 -106 -309 -115 -125 -37 -160 -15 -210
137 -38 112 -90 191 -171 255 -29 23 -55 40 -58 38 -2 -3 23 -52 56 -108 71
-120 92 -173 92 -235 0 -56 -14 -83 -39 -76 -29 7 -55 42 -76 98 -10 28 -33
80 -51 116 -41 82 -208 356 -235 385 -33 36 -87 52 -239 74 -246 36 -368 36
-650 1 -445 -56 -675 -101 -930 -181 -216 -68 -289 -83 -695 -145 -229 -35
-335 -59 -498 -111 -165 -53 -212 -56 -255 -16 -58 54 -182 329 -315 697 -101
279 -205 552 -227 595 -34 66 -104 94 -165 67z m229 -933 c18 -7 21 -39 5 -50
-16 -9 -43 21 -36 40 7 18 9 18 31 10z m3450 -299 c35 -13 69 -38 115 -84 168
-169 284 -424 332 -730 12 -75 35 -201 51 -281 46 -227 65 -364 89 -656 25
-301 23 -321 -33 -350 -26 -13 -205 -31 -513 -49 -49 -3 -115 -8 -145 -10 -30
-2 -215 -9 -410 -15 -409 -11 -602 -19 -674 -25 -28 -3 -206 -21 -396 -40
-190 -19 -412 -39 -495 -45 -374 -27 -638 -58 -940 -108 -74 -13 -105 -4 -120
32 -9 21 -21 155 -34 387 -52 874 -62 1024 -90 1274 -18 157 -5 170 217 225
354 88 533 121 937 175 314 43 548 96 729 165 101 39 145 49 280 61 61 5 176
23 256 39 80 16 188 34 240 39 52 6 111 13 130 15 19 2 123 3 230 1 156 -2
205 -6 244 -20z m3049 -220 c114 -20 234 -63 381 -137 141 -71 286 -120 416
-143 55 -9 214 -21 380 -27 407 -16 593 1 818 74 69 23 105 29 138 25 67 -7
70 -17 25 -68 -71 -82 -288 -168 -716 -284 -197 -54 -296 -99 -416 -189 -85
-65 -236 -215 -290 -289 -34 -47 -37 -90 -10 -130 23 -35 322 -258 422 -314
97 -55 183 -82 296 -96 77 -9 91 -13 81 -24 -32 -39 -69 -46 -253 -49 -438 -7
-783 -105 -1420 -404 -157 -74 -188 -82 -315 -84 -135 -2 -156 -10 -223 -87
l-45 -51 -21 48 c-61 138 -127 152 -770 170 -237 6 -261 12 -280 65 -19 55
-14 208 10 275 33 96 57 208 84 394 14 96 37 236 51 310 36 182 31 283 -25
505 -34 136 -38 163 -28 184 31 65 507 220 857 280 314 54 690 74 853 46z
m-1828 -375 c20 -22 49 -148 65 -287 9 -70 8 -113 0 -171 -20 -128 -21 -126
-66 87 -34 158 -43 179 -109 251 -46 50 -53 63 -46 82 17 50 122 76 156 38z
m-231 -94 c67 -51 109 -141 153 -326 29 -128 41 -359 24 -494 -6 -49 -13 -91
-16 -94 -8 -8 -30 24 -74 108 -49 94 -72 166 -112 350 -17 80 -33 147 -36 150
-8 8 -23 -24 -23 -50 0 -27 -25 -70 -40 -70 -21 0 -42 103 -51 254 -5 87 -12
162 -14 167 -3 4 2 15 12 24 27 28 131 17 177 -19z m-91 -694 c88 -178 133
-325 172 -553 29 -177 30 -183 9 -203 -26 -26 -69 -20 -98 15 -41 49 -54 116
-81 424 -13 160 -27 305 -29 323 -6 42 5 40 27 -6z m799 -933 c46 -10 61 -19
117 -77 36 -37 81 -74 102 -84 41 -18 78 -64 63 -78 -13 -12 -200 -30 -317
-30 -116 0 -216 14 -263 36 -59 28 -85 136 -45 185 16 19 37 26 132 40 142 21
146 21 211 8z m569 -156 c16 -10 29 -21 29 -25 0 -12 -109 -9 -132 3 -21 11
-21 12 3 25 33 18 65 17 100 -3z"/>
<path d="M4876 8789 c-21 -12 -80 -49 -130 -84 -50 -34 -147 -95 -216 -134
-122 -70 -464 -242 -507 -255 -33 -10 -89 18 -118 61 -15 21 -58 88 -97 148
-113 178 -156 211 -244 186 -22 -6 -115 -16 -209 -21 -93 -6 -196 -17 -229
-25 -89 -23 -173 -72 -253 -150 -65 -62 -73 -74 -73 -107 0 -56 36 -93 92 -92
61 0 283 112 356 179 l55 50 -7 -83 c-17 -190 -48 -253 -241 -487 -134 -162
-285 -411 -285 -470 0 -62 71 -125 139 -125 47 0 78 20 157 102 77 79 120 151
130 220 10 66 28 93 138 208 104 109 161 194 210 312 54 126 88 127 158 2 75
-133 133 -218 181 -261 26 -24 51 -43 56 -43 5 0 16 11 25 25 20 31 69 55 165
84 62 19 84 32 135 80 34 31 93 83 133 114 42 33 84 77 100 104 l27 47 9 -35
c18 -69 4 -129 -52 -227 -100 -172 -144 -357 -121 -504 36 -235 233 -408 462
-408 95 0 160 37 199 112 25 48 24 83 -2 119 -35 50 -94 76 -208 93 -121 18
-173 44 -216 106 -38 55 -46 147 -17 199 26 48 38 49 63 6 26 -44 32 -38 54
60 11 48 13 84 8 115 -13 69 -6 85 57 140 76 66 110 121 185 300 35 82 72 162
84 178 25 35 28 98 6 126 -23 30 -67 56 -95 55 -14 0 -42 -9 -64 -20z"/>
<path d="M8265 8774 c-110 -7 -269 -17 -353 -23 -85 -6 -188 -11 -230 -11
-163 0 -388 -53 -527 -122 -130 -66 -245 -226 -253 -353 -7 -107 59 -230 147
-274 52 -27 278 -99 401 -128 91 -22 138 -26 343 -32 235 -6 239 -6 258 -30
27 -34 24 -56 -17 -101 -75 -83 -242 -137 -389 -126 -44 3 -136 17 -205 30
-396 80 -674 -25 -658 -246 6 -76 38 -113 112 -127 176 -34 198 -36 212 -16 8
10 14 26 14 36 0 9 10 29 22 44 21 27 23 27 97 21 287 -23 524 -15 677 24 197
51 344 173 440 367 77 155 72 199 -36 292 -122 105 -121 105 -455 112 -315 7
-363 14 -506 76 -149 66 -176 92 -150 141 27 51 133 112 196 112 19 0 75 9
123 19 88 19 226 33 497 51 206 13 202 14 232 -16 23 -23 25 -31 19 -74 -8
-57 8 -103 48 -139 20 -19 40 -26 84 -29 51 -4 62 -1 86 20 27 23 28 26 27
120 -1 99 10 148 59 243 26 51 25 86 -3 113 -36 34 -95 39 -312 26z"/>
</g>
</svg>
